<svg width="61" height="20" viewBox="0 0 61 20" fill="none" xmlns="http://www.w3.org/2000/svg">
<path d="M30.8507 5.67327C30.8507 7.4609 32.3263 8.90094 34.1384 8.90094C35.5104 8.90094 36.7142 8.11885 37.219 6.96434L35.4198 6.55467C35.1868 6.96434 34.7079 7.2002 34.1384 7.2002C33.3618 7.2002 32.8311 6.70364 32.7146 6.00845H37.465C37.4779 5.88431 37.4909 5.76017 37.4909 5.63602C37.4779 3.87322 35.9764 2.4456 34.1384 2.4456C32.3263 2.4456 30.8507 3.88564 30.8507 5.67327ZM34.1384 4.0346C34.7985 4.0346 35.3033 4.40703 35.5234 4.96566H32.8052C33.0123 4.40703 33.4912 4.0346 34.1384 4.0346Z" fill="black"/>
<path fill-rule="evenodd" clip-rule="evenodd" d="M23 8.90093H27.0773C28.7471 8.90093 29.8602 7.92022 29.8602 6.34363C29.8602 5.66085 29.6531 4.82909 28.5788 4.41942C29.6531 4.00976 29.8602 3.24008 29.8602 2.55731C29.8602 0.980715 28.7471 0 27.0773 0H23V8.90093ZM27.9704 6.19466C27.9704 4.45047 25.9113 5.6898 25.9113 4.41942C25.9113 3.14905 27.9704 4.41942 27.9704 2.70628C27.9704 2.17247 27.5174 1.82487 26.8443 1.82487H24.9027V7.07606H26.8443C27.5174 7.07606 27.9704 6.72846 27.9704 6.19466Z" fill="black"/>
<path d="M38.1012 4.36978H38.8778V6.84019C38.8778 8.00712 40.5476 8.77679 40.5476 8.77679C40.5476 8.77679 41.9173 9.27901 42.4374 8.77679C42.9539 8.27802 43.1027 7.27161 42.4374 6.97675C42.1299 6.8405 42.0491 6.97675 41.5701 6.97675C41.0912 6.97675 40.7806 6.6664 40.7806 6.19466V4.36978H42.4374V2.56974H40.7806V0.831762H38.8778V2.56974H38.1012V4.36978Z" fill="black"/>
<path d="M43.2964 4.36978H44.073V6.84019C44.073 8.00712 45.7428 8.77679 45.7428 8.77679C45.7428 8.77679 47.1126 9.27901 47.6326 8.77679C48.1491 8.27802 48.298 7.27161 47.6326 6.97675C47.3252 6.8405 47.2443 6.97675 46.7654 6.97675C46.2864 6.97675 45.9758 6.6664 45.9758 6.19466V4.36978H47.6326V2.56974H45.9758V0.831762H44.073V2.56974H43.2964V4.36978Z" fill="black"/>
<path d="M48.4429 5.67327C48.4429 7.4609 49.9185 8.90094 51.7307 8.90094C53.1027 8.90094 54.3065 8.11885 54.8113 6.96433L53.0121 6.55467C52.7791 6.96433 52.3002 7.2002 51.7307 7.2002C50.954 7.2002 50.4233 6.70364 50.3068 6.00845H55.0572C55.0702 5.88431 55.0831 5.76016 55.0831 5.63602C55.0702 3.87322 53.5687 2.4456 51.7307 2.4456C49.9185 2.4456 48.4429 3.88563 48.4429 5.67327ZM51.7307 4.0346C52.3908 4.0346 52.8956 4.40703 53.1156 4.96566H50.3974C50.6045 4.40703 51.0835 4.0346 51.7307 4.0346Z" fill="black"/>
<path d="M56.1964 2.56974V8.77679H58.0862V5.56154C58.0862 4.56841 58.6428 4.25806 59.5618 4.25806C59.8336 4.25806 60.1443 4.28289 60.442 4.32013C60.7397 4.35737 61.3664 2.85589 60.7138 2.52008C60.4237 2.37082 60.1993 2.43262 59.8724 2.47043C59.0317 2.56768 58.125 3.46355 58.0862 3.64977V2.56974H56.1964Z" fill="black"/>
<path d="M23 15.5625C23 18.0125 24.9421 20 27.4969 20C29.1262 20 30.5209 19.1875 31.303 17.9625L29.6737 17.0625C29.2175 17.7625 28.4223 18.225 27.4969 18.225C25.9979 18.225 24.903 17.05 24.903 15.5625C24.903 14 25.9979 12.775 27.4969 12.775C28.3702 12.775 29.1132 13.1875 29.5824 13.85L31.1075 12.7875C30.2863 11.7 28.9828 11 27.4969 11C24.9421 11 23 13.0375 23 15.5625Z" fill="black"/>
<path d="M31.7712 16.75C31.7712 18.55 33.2571 20 35.082 20C36.9589 20 38.497 18.55 38.497 16.75C38.497 14.95 36.9589 13.5 35.082 13.5C33.2571 13.5 31.7712 14.95 31.7712 16.75ZM33.6612 16.75C33.6612 15.875 34.2086 15.2 35.082 15.2C36.0074 15.2 36.607 15.875 36.607 16.75C36.607 17.5625 36.0074 18.1875 35.082 18.1875C34.2086 18.1875 33.6612 17.5625 33.6612 16.75Z" fill="black"/>
<path d="M42.5357 13.5C40.8412 13.5 39.4725 14.95 39.4725 16.75C39.4725 18.5375 40.8412 20 42.5357 20C43.3438 20 44.0085 19.6625 44.2823 19.1625V19.875H46.1853V11.125H44.2823V14.3375C44.0085 13.825 43.3438 13.5 42.5357 13.5ZM42.8745 18.175C41.9621 18.175 41.3756 17.55 41.3756 16.75C41.3756 15.8875 41.9621 15.2125 42.8745 15.2125C43.6305 15.2125 44.2823 15.7375 44.2823 16.75C44.2823 17.6875 43.6305 18.175 42.8745 18.175Z" fill="black"/>
<path d="M47.3133 16.75C47.3133 18.55 48.7992 20 50.6241 20C52.0057 20 53.2179 19.2125 53.7263 18.05L51.9145 17.6375C51.6799 18.05 51.1976 18.2875 50.6241 18.2875C49.842 18.2875 49.3076 17.7875 49.1903 17.0875H53.9739C53.987 16.9625 54 16.8375 54 16.7125C53.987 14.9375 52.475 13.5 50.6241 13.5C48.7992 13.5 47.3133 14.95 47.3133 16.75ZM50.6241 15.1C51.2888 15.1 51.7972 15.475 52.0188 16.0375H49.2815C49.4901 15.475 49.9723 15.1 50.6241 15.1Z" fill="black"/>
<path d="M1.17647 0L5.88235 4.70588L4.70588 5.88235L1.2892e-06 1.17647L1.17647 0Z" fill="black"/>
<path d="M0 4.70588L4.70588 7.93352e-08L5.88235 1.17647L1.17647 5.88235L0 4.70588Z" fill="black"/>
<path d="M8.2353 0L12.9412 4.70588L11.7647 5.88235L7.05883 1.17647L8.2353 0Z" fill="black"/>
<path d="M7.05883 4.70588L11.7647 7.93352e-08L12.9412 1.17647L8.2353 5.88235L7.05883 4.70588Z" fill="black"/>
<path d="M15.2941 0L20 4.70588L18.8235 5.88235L14.1176 1.17647L15.2941 0Z" fill="black"/>
<path d="M14.1176 4.70588L18.8235 7.93352e-08L20 1.17647L15.2941 5.88235L14.1176 4.70588Z" fill="black"/>
<path d="M8.2353 7.05884L12.9412 11.7647L11.7647 12.9412L7.05883 8.23531L8.2353 7.05884Z" fill="black"/>
<path d="M7.05883 11.7647L11.7647 7.05884L12.9412 8.23531L8.2353 12.9412L7.05883 11.7647Z" fill="black"/>
<path d="M1.17647 7.05884L5.88235 11.7647L4.70588 12.9412L1.2892e-06 8.23531L1.17647 7.05884Z" fill="black"/>
<path d="M0 11.7647L4.70588 7.05884L5.88235 8.23531L1.17647 12.9412L0 11.7647Z" fill="black"/>
<path d="M1.17647 14.1176L5.88235 18.8235L4.70588 20L1.2892e-06 15.2941L1.17647 14.1176Z" fill="black"/>
<path d="M0 18.8235L4.70588 14.1176L5.88235 15.2941L1.17647 20L0 18.8235Z" fill="black"/>
</svg>
